{
  "accessors": [
    {
      "bufferView": 2,
      "componentType": 5126,
      "count": 65532,
      "max": [
        1.4032449722290039,
        2.2997539043426514,
        136.33770751953125
      ],
      "min": [
        -0.16156899929046631,
        0.42356100678443909,
        134.20550537109375
      ],
      "type": "VEC3"
    },
    {
      "bufferView": 2,
      "byteOffset": 786384,
      "componentType": 5126,
      "count": 65532,
      "max": [
        0.99997669458389282,
        0.99994951486587524,
        0.99999010562896729
      ],
      "min": [
        -0.99999278783798218,
        -0.99996256828308105,
        -0.99985545873641968
      ],
      "type": "VEC3"
    },
    {
      "bufferView": 1,
      "componentType": 5126,
      "count": 65532,
      "max": [
        0.99411797523498535,
        0.99863898754119873
      ],
      "min": [
        0.005007999949157238,
        0.003527000080794096
      ],
      "type": "VEC2"
    },
    {
      "bufferView": 0,
      "componentType": 5125,
      "count": 341079,
      "max": [
        65531
      ],
      "min": [
        0
      ],
      "type": "SCALAR"
    },
    {
      "bufferView": 2,
      "byteOffset": 1572768,
      "componentType": 5126,
      "count": 65532,
      "max": [
        1.4092710018157959,
        2.2639729976654053,
        136.19940185546875
      ],
      "min": [
        -0.16156899929046631,
        1.1054849624633789,
        135.05410766601562
      ],
      "type": "VEC3"
    },
    {
      "bufferView": 2,
      "byteOffset": 2359152,
      "componentType": 5126,
      "count": 65532,
      "max": [
        0.99999618530273438,
        0.99999678134918213,
        0.99994760751724243
      ],
      "min": [
        -0.99993371963500977,
        -0.99998122453689575,
        -0.99999153614044189
      ],
      "type": "VEC3"
    },
    {
      "bufferView": 1,
      "byteOffset": 524256,
      "componentType": 5126,
      "count": 65532,
      "max": [
        0.99088400602340698,
        0.99886399507522583
      ],
      "min": [
        0.0039169997908174992,
        0.0034209999721497297
      ],
      "type": "VEC2"
    },
    {
      "bufferView": 0,
      "byteOffset": 1364316,
      "componentType": 5125,
      "count": 318000,
      "max": [
        65531
      ],
      "min": [
        0
      ],
      "type": "SCALAR"
    },
    {
      "bufferView": 2,
      "byteOffset": 3145536,
      "componentType": 5126,
      "count": 65532,
      "max": [
        1.4929100275039673,
        2.3002769947052002,
        136.34822082519531
      ],
      "min": [
        -0.14877200126647949,
        0.66421598196029663,
        134.47071838378906
      ],
      "type": "VEC3"
    },
    {
      "bufferView": 2,
      "byteOffset": 3931920,
      "componentType": 5126,
      "count": 65532,
      "max": [
        0.99997824430465698,
        0.99995380640029907,
        0.99999105930328369
      ],
      "min": [
        -0.9999803900718689,
        -0.99991834163665771,
        -0.99990391731262207
      ],
      "type": "VEC3"
    },
    {
      "bufferView": 1,
      "byteOffset": 1048512,
      "componentType": 5126,
      "count": 65532,
      "max": [
        0.98924297094345093,
        0.99940401315689087
      ],
      "min": [
        0.00051300000632181764,
        0.0054330001585185528
      ],
      "type": "VEC2"
    },
    {
      "bufferView": 0,
      "byteOffset": 2636316,
      "componentType": 5125,
      "count": 331167,
      "max": [
        65531
      ],
      "min": [
        0
      ],
      "type": "SCALAR"
    },
    {
      "bufferView": 2,
      "byteOffset": 4718304,
      "componentType": 5126,
      "count": 15412,
      "max": [
        1.4835519790649414,
        2.3002769947052002,
        136.34834289550781
      ],
      "min": [
        -0.15799599885940552,
        0.46639901399612427,
        134.27925109863281
      ],
      "type": "VEC3"
    },
    {
      "bufferView": 2,
      "byteOffset": 4903248,
      "componentType": 5126,
      "count": 15412,
      "max": [
        0.99997329711914062,
        0.99922549724578857,
        0.99987244606018066
      ],
      "min": [
        -0.9999651312828064,
        -0.99975287914276123,
        -0.99922966957092285
      ],
      "type": "VEC3"
    },
    {
      "bufferView": 1,
      "byteOffset": 1572768,
      "componentType": 5126,
      "count": 15412,
      "max": [
        0.98857200145721436,
        0.99924397468566895
      ],
      "min": [
        0.0028490000404417515,
        0.0067989998497068882
      ],
      "type": "VEC2"
    },
    {
      "bufferView": 0,
      "byteOffset": 3960984,
      "componentType": 5125,
      "count": 65118,
      "max": [
        15411
      ],
      "min": [
        0
      ],
      "type": "SCALAR"
    }
  ],
  "asset": {
    "extras": {
      "author": "nash808 (https://sketchfab.com/nash808)",
      "license": "CC-BY-4.0 (http://creativecommons.org/licenses/by/4.0/)",
      "source": "https://sketchfab.com/3d-models/t-rex-1-e411a73d231642a9a9daf3ac73f22ceb",
      "title": "T-Rex_1"
    },
    "generator": "Sketchfab-8.87.0",
    "version": "2.0"
  },
  "bufferViews": [
    {
      "buffer": 0,
      "byteLength": 4221456,
      "byteOffset": 0,
      "name": "floatBufferViews",
      "target": 34963
    },
    {
      "buffer": 0,
      "byteLength": 1696064,
      "byteOffset": 4221456,
      "byteStride": 8,
      "name": "floatBufferViews",
      "target": 34962
    },
    {
      "buffer": 0,
      "byteLength": 5088192,
      "byteOffset": 5917520,
      "byteStride": 12,
      "name": "floatBufferViews",
      "target": 34962
    }
  ],
  "buffers": [
    {
      "byteLength": 11005712,
      "uri": "scene.bin"
    }
  ],
  "images": [
    {
      "uri": "textures/model_baseColor.jpeg"
    }
  ],
  "materials": [
    {
      "doubleSided": true,
      "emissiveFactor": [
        0,
        0,
        0
      ],
      "name": "model",
      "pbrMetallicRoughness": {
        "baseColorFactor": [
          1,
          1,
          1,
          1
        ],
        "baseColorTexture": {
          "index": 0,
          "texCoord": 0
        },
        "metallicFactor": 0,
        "roughnessFactor": 0.66996060047790162
      }
    }
  ],
  "meshes": [
    {
      "primitives": [
        {
          "attributes": {
            "NORMAL": 1,
            "POSITION": 0,
            "TEXCOORD_0": 2
          },
          "indices": 3,
          "material": 0,
          "mode": 4
        }
      ]
    },
    {
      "primitives": [
        {
          "attributes": {
            "NORMAL": 5,
            "POSITION": 4,
            "TEXCOORD_0": 6
          },
          "indices": 7,
          "material": 0,
          "mode": 4
        }
      ]
    },
    {
      "primitives": [
        {
          "attributes": {
            "NORMAL": 9,
            "POSITION": 8,
            "TEXCOORD_0": 10
          },
          "indices": 11,
          "material": 0,
          "mode": 4
        }
      ]
    },
    {
      "primitives": [
        {
          "attributes": {
            "NORMAL": 13,
            "POSITION": 12,
            "TEXCOORD_0": 14
          },
          "indices": 15,
          "material": 0,
          "mode": 4
        }
      ]
    }
  ],
  "nodes": [
    {
      "children": [
        1
      ],
      "name": "RootNode (gltf orientation matrix)",
      "rotation": [
        -0.70710678118654746,
        -0,
        -0,
        0.70710678118654757
      ]
    },
    {
      "children": [
        2
      ],
      "matrix": [
        0.14251580834388733,
        0.18480135500431061,
        0.97238761186599731,
        0,
        0.98977822065353394,
        -0.021329654380679131,
        -0.14101094007492065,
        0,
        -0.0053183208219707012,
        0.9825444221496582,
        -0.18595217168331146,
        0,
        -0.057748422026634216,
        -131.64811706542969,
        159.97731018066406,
        1
      ],
      "name": "RootNode (model correction matrix)"
    },
    {
      "children": [
        3,
        4,
        5,
        6
      ],
      "name": "model.obj.cleaner.materialmerger.gles"
    },
    {
      "mesh": 0,
      "name": ""
    },
    {
      "mesh": 1,
      "name": ""
    },
    {
      "mesh": 2,
      "name": ""
    },
    {
      "mesh": 3,
      "name": ""
    }
  ],
  "samplers": [
    {
      "magFilter": 9729,
      "minFilter": 9987,
      "wrapS": 10497,
      "wrapT": 10497
    }
  ],
  "scene": 0,
  "scenes": [
    {
      "name": "OSG_Scene",
      "nodes": [
        0
      ]
    }
  ],
  "textures": [
    {
      "sampler": 0,
      "source": 0
    }
  ]
}

